<?xml version="1.0" encoding="UTF-8"?>
<svg version="1.1" xmlns="http://www.w3.org/2000/svg" width="200" height="200">
  <path d="M0 0 C4.17756418 2.03579563 7.90282121 4.6241523 11.73828125 7.23828125 C13.62284717 8.50907505 15.50832467 9.77851766 17.39453125 11.046875 C18.4309375 11.74409668 19.46734375 12.44131836 20.53515625 13.15966797 C26.21906885 16.9685336 31.95134261 20.70432547 37.67648315 24.45077515 C41.78509909 27.14097871 45.88900668 29.83836183 49.99378967 32.53440857 C53.80132323 35.03428449 57.61309947 37.52747517 61.42900085 40.01455688 C63.12746299 41.1233506 64.82342338 42.23584843 66.51831055 43.35009766 C68.56374232 44.69474012 70.61315385 46.03335598 72.66723633 47.36474609 C80.88062065 52.7876998 84.53159471 58.15919653 88.61328125 66.98828125 C89.01611328 67.83841797 89.41894531 68.68855469 89.83398438 69.56445312 C91.52039844 73.16609121 93.06875226 76.52753942 93.92578125 80.42578125 C95.24578125 80.42578125 96.56578125 80.42578125 97.92578125 80.42578125 C98.16167969 79.64074219 98.39757812 78.85570313 98.640625 78.046875 C102.78513515 66.36918227 107.72717397 53.6509385 118.92578125 47.42578125 C120.63104563 46.35872071 122.33594457 45.29105252 124.03637695 44.21630859 C126.08804488 42.92551564 128.15145292 41.65476893 130.21484375 40.3828125 C135.50524217 37.09123426 140.68467817 33.6397327 145.86328125 30.17578125 C146.84530518 29.52109863 147.8273291 28.86641602 148.83911133 28.19189453 C154.37746256 24.4927477 159.89701624 20.7683916 165.39772034 17.01358032 C168.40688266 14.96241379 171.42276883 12.9212632 174.43948364 10.88122559 C175.92660373 9.8718047 177.41058217 8.85773935 178.8913269 7.83898926 C180.97332242 6.40710973 183.06535264 4.9911745 185.16015625 3.578125 C185.78517532 3.14251755 186.4101944 2.7069101 187.05415344 2.25810242 C191.38074031 -0.62831643 191.38074031 -0.62831643 194.34863281 -0.33374023 C194.8690918 -0.08309814 195.38955078 0.16754395 195.92578125 0.42578125 C195.39321683 6.07287819 193.2112241 10.3049877 190.62109375 15.2421875 C190.18551651 16.08812973 189.74993927 16.93407196 189.30116272 17.8056488 C187.89216106 20.53730309 186.47163576 23.2627764 185.05078125 25.98828125 C184.08694516 27.85185099 183.1238106 29.71578372 182.16137695 31.58007812 C176.74417379 42.06050232 171.30555251 52.5318886 165.77197266 62.95141602 C163.81488409 66.03821185 163.81488409 66.03821185 162.92578125 69.42578125 C173.81578125 69.92078125 173.81578125 69.92078125 184.92578125 70.42578125 C185.58578125 71.74578125 186.24578125 73.06578125 186.92578125 74.42578125 C182.20017557 78.62621762 177.31173932 82.39501278 172.11328125 85.98828125 C170.60613892 87.04076235 169.09964997 88.09417958 167.59375 89.1484375 C166.82337402 89.68742676 166.05299805 90.22641602 165.25927734 90.78173828 C161.45600358 93.46129944 157.6913565 96.19362036 153.92578125 98.92578125 C148.12040731 103.1330361 142.29058274 107.30177371 136.42578125 111.42578125 C130.43892633 115.6368386 124.48401431 119.88949765 118.55078125 124.17578125 C117.79506836 124.71936279 117.03935547 125.26294434 116.26074219 125.82299805 C112.99125996 128.18009174 109.74025308 130.54870612 106.55859375 133.0234375 C105.13160156 134.11978516 105.13160156 134.11978516 103.67578125 135.23828125 C102.886875 135.86347656 102.09796875 136.48867187 101.28515625 137.1328125 C98.12865463 138.8626172 96.48865318 139.01738576 92.92578125 138.42578125 C90.30553168 136.97012959 88.05556047 135.13041448 85.73828125 133.23828125 C84.32061573 132.12649103 82.89991454 131.01856328 81.4765625 129.9140625 C80.73486816 129.33736816 79.99317383 128.76067383 79.22900391 128.16650391 C75.39632946 125.2698568 71.41232714 122.60452637 67.42578125 119.92578125 C60.75246613 115.4169116 54.2511175 110.74507149 47.83935547 105.87280273 C43.14286928 102.31271414 38.37518667 98.87274792 33.55078125 95.48828125 C32.85895752 95.00157959 32.16713379 94.51487793 31.4543457 94.01342773 C28.45725068 91.90540988 25.45917764 89.79885284 22.45654297 87.69873047 C19.96113759 85.9493989 17.47411627 84.18867707 14.98828125 82.42578125 C13.82449951 81.61572632 13.82449951 81.61572632 12.63720703 80.78930664 C11.91903809 80.27746826 11.20086914 79.76562988 10.4609375 79.23828125 C9.82551025 78.79097656 9.19008301 78.34367187 8.53540039 77.8828125 C6.71047774 76.23088798 5.88600428 74.67422577 4.92578125 72.42578125 C7.44706481 69.90449769 8.43817138 70.13225056 11.93359375 70.01171875 C12.91972656 69.97304687 13.90585937 69.934375 14.921875 69.89453125 C15.95441406 69.86359375 16.98695312 69.83265625 18.05078125 69.80078125 C19.09105469 69.76210937 20.13132812 69.7234375 21.203125 69.68359375 C23.77716436 69.58913359 26.3511928 69.50356911 28.92578125 69.42578125 C24.94123543 60.73323856 20.84711901 52.12324274 16.36328125 43.67578125 C15.96399414 42.92248535 15.56470703 42.16918945 15.15332031 41.39306641 C14.26542366 39.71941155 13.377221 38.045919 12.48876953 36.37255859 C9.5912121 30.90965354 6.70148209 25.44293507 3.83621216 19.9630127 C3.14891767 18.65223278 2.45857204 17.34304793 1.7651062 16.03552246 C0.78756324 14.19165278 -0.17953581 12.34264761 -1.14453125 10.4921875 C-1.70930176 9.41912354 -2.27407227 8.34605957 -2.85595703 7.24047852 C-4.07421875 4.42578125 -4.07421875 4.42578125 -4.07421875 0.42578125 C-2.07421875 -0.57421875 -2.07421875 -0.57421875 0 0 Z " fill="#FBB847" transform="translate(4.07421875,47.57421875)"/>
  <path d="M0 0 C0.99 0 1.98 0 3 0 C4.33819498 2.6226232 5.6707151 5.24786599 7 7.875 C7.57234375 8.99455078 7.57234375 8.99455078 8.15625 10.13671875 C8.69765625 11.20986328 8.69765625 11.20986328 9.25 12.3046875 C9.58515625 12.96452637 9.9203125 13.62436523 10.265625 14.30419922 C11 16 11 16 11 18 C17.93 18.99 24.86 19.98 32 21 C32.495 22.98 32.495 22.98 33 25 C32.32453125 25.60328125 31.6490625 26.2065625 30.953125 26.828125 C30.06109375 27.62734375 29.1690625 28.4265625 28.25 29.25 C27.36828125 30.03890625 26.4865625 30.8278125 25.578125 31.640625 C24.72734375 32.41921875 23.8765625 33.1978125 23 34 C22.2059375 34.53625 21.411875 35.0725 20.59375 35.625 C17.84477541 39.72151115 19.4015328 44.09891338 20.25 48.75 C20.41113281 49.73355469 20.57226562 50.71710937 20.73828125 51.73046875 C21.13890072 54.15775141 21.56004111 56.57959216 22 59 C18.09082413 60.04297768 17.28310328 60.1370456 13.44140625 58.27734375 C11.47870809 57.12128858 9.54518376 55.92664479 7.61523438 54.71679688 C3.53840835 52.308818 3.53840835 52.308818 -1.12109375 52.5546875 C-4.99135173 54.49769354 -8.6987234 56.63355027 -12.4140625 58.85546875 C-15 60 -15 60 -17.3359375 59.67578125 C-18.15964844 59.34126953 -18.15964844 59.34126953 -19 59 C-18.85584802 57.1873655 -18.70957364 55.37489978 -18.5625 53.5625 C-18.44068359 52.04849609 -18.44068359 52.04849609 -18.31640625 50.50390625 C-18 47 -18 47 -17.51318359 44.82104492 C-16.58575608 40.30078641 -16.58575608 40.30078641 -18.15454102 36.12866211 C-19.85009928 34.3455649 -21.60867236 32.76103837 -23.5 31.1875 C-24.74986332 30.10946107 -25.99004972 29.02006759 -27.21875 27.91796875 C-27.77498047 27.45156982 -28.33121094 26.9851709 -28.90429688 26.50463867 C-29.26587891 26.00810791 -29.62746094 25.51157715 -30 25 C-29.67 23.68 -29.34 22.36 -29 21 C-22.4 20.01 -15.8 19.02 -9 18 C-8.34 16.02 -7.68 14.04 -7 12 C-6.02372048 10.03967216 -5.00282517 8.1008973 -3.9375 6.1875 C-3.14666016 4.75470703 -3.14666016 4.75470703 -2.33984375 3.29296875 C-1 1 -1 1 0 0 Z " fill="#FBB847" transform="translate(99,0)"/>
</svg>
